<svg id="Layer_1" height="30" fill='url(#paint0_linear_1_404)' viewBox="0 0 24 24" width="30" xmlns="http://www.w3.org/2000/svg" data-name="Layer 1"><path d="m12 0a12 12 0 1 0 12 12 12.013 12.013 0 0 0 -12-12zm0 22a10 10 0 1 1 10-10 10.011 10.011 0 0 1 -10 10zm5-10a1 1 0 0 1 -1 1h-3v3a1 1 0 0 1 -2 0v-3h-3a1 1 0 0 1 0-2h3v-3a1 1 0 0 1 2 0v3h3a1 1 0 0 1 1 1z"/>
<linearGradient id="paint0_linear_1_404" x1="29.3333" y1="37.3333" x2="6.66667" y2="4" gradientUnits="userSpaceOnUse">
<stop stop-color="#2A8BF2"/>
<stop offset="1" stop-color="#2A8BF2"/>
</linearGradient>
</svg>